<?xml version="1.0" standalone="no"?>
<!DOCTYPE svg PUBLIC "-//W3C//DTD SVG 20010904//EN"
 "http://www.w3.org/TR/2001/REC-SVG-20010904/DTD/svg10.dtd">
<svg version="1.0" xmlns="http://www.w3.org/2000/svg"
 width="5909.000000pt" height="5955.000000pt" viewBox="0 0 5909.000000 5955.000000"
 preserveAspectRatio="xMidYMid meet">

<g transform="translate(0.000000,5955.000000) scale(0.100000,-0.100000)"
fill="#000000" stroke="none">
<path d="M30525 59019 c-649 -36 -1424 -195 -2070 -424 -1640 -582 -2997
-1701 -4053 -3342 -858 -1334 -1517 -3016 -1946 -4968 -354 -1614 -566 -3512
-566 -5080 0 -365 0 -371 23 -415 65 -130 248 -132 313 -3 20 40 21 58 27 570
6 540 12 710 47 1243 31 468 112 1312 155 1625 118 841 235 1501 375 2115 598
2622 1571 4658 2894 6055 118 125 404 405 479 470 325 280 528 436 822 630
916 606 1993 998 3117 1135 499 60 1023 56 1481 -10 405 -60 901 -200 1227
-348 l64 -30 -184 -92 c-1608 -805 -2877 -2146 -3839 -4060 -718 -1428 -1237
-3109 -1561 -5050 -62 -370 -170 -1144 -170 -1215 0 -16 13 -16 173 -10 94 4
173 9 175 10 2 2 19 124 38 272 323 2507 1000 4727 1954 6398 801 1404 1795
2444 2995 3135 176 101 538 282 710 355 131 56 113 59 298 -55 1837 -1133
3257 -3601 4167 -7242 364 -1459 597 -2850 795 -4745 5 -52 5 -53 -22 -53 -76
0 -213 -121 -271 -239 -36 -73 -37 -78 -37 -185 0 -130 20 -207 90 -346 193
-384 587 -802 1705 -1805 195 -175 372 -334 392 -353 21 -20 40 -33 43 -30 5
4 45 219 45 240 0 4 -152 144 -337 310 -620 556 -961 879 -1175 1111 l-100
109 36 30 c66 54 70 71 62 263 -4 93 -15 276 -25 405 -10 129 -16 237 -14 239
8 10 143 -19 234 -50 543 -182 1197 -757 1760 -1548 422 -594 709 -1181 811
-1661 17 -80 22 -139 23 -250 0 -80 -4 -154 -8 -164 -7 -18 -11 -16 -39 18
-30 37 -33 38 -77 32 -65 -9 -191 -47 -191 -58 0 -5 24 -35 53 -66 30 -31 89
-97 131 -147 84 -97 106 -114 149 -115 51 0 82 25 121 99 57 109 76 199 76
365 0 156 -9 228 -46 392 -54 244 -152 500 -324 849 -130 262 -221 420 -394
680 -394 591 -862 1096 -1331 1437 -281 205 -616 359 -874 402 -52 9 -95 17
-96 18 -2 2 -13 107 -25 233 -124 1306 -354 2752 -641 4035 -726 3239 -1834
5642 -3284 7119 -349 356 -691 644 -1017 857 -59 38 -107 72 -107 76 -2 15
396 131 659 193 953 223 1795 250 2585 84 939 -198 1755 -638 2533 -1366 105
-99 196 -193 407 -423 92 -101 307 -366 433 -535 639 -855 1217 -1972 1689
-3260 487 -1328 884 -2889 1173 -4609 32 -191 62 -351 65 -355 4 -3 87 -13
186 -21 l180 -16 -5 26 c-3 14 -24 142 -47 285 -22 143 -69 418 -104 610 -922
5058 -2691 8336 -5165 9569 -596 297 -1177 463 -1864 533 -210 21 -817 24
-1026 5 -619 -57 -1211 -181 -1780 -372 -129 -44 -256 -87 -281 -97 l-46 -17
-118 58 c-830 408 -1746 589 -2710 535z m7985 -13613 c11 -142 20 -284 20
-315 l-1 -56 -35 55 c-52 80 -111 206 -129 275 -31 122 -16 188 63 264 31 30
57 51 59 45 1 -5 12 -125 23 -268z"/>
<path d="M35158 40095 c-2 -1 -136 -5 -298 -9 -162 -4 -349 -9 -415 -11 -106
-5 -377 -12 -1060 -30 -110 -3 -267 -7 -350 -10 -82 -3 -251 -7 -375 -10 -124
-3 -290 -7 -370 -10 -80 -3 -239 -7 -355 -10 -115 -3 -280 -8 -365 -10 -85 -3
-337 -9 -560 -15 -223 -5 -461 -12 -530 -15 -69 -2 -226 -7 -350 -10 -124 -3
-299 -7 -390 -10 -91 -3 -253 -7 -360 -10 -107 -3 -267 -7 -355 -10 -311 -9
-513 -15 -755 -20 -135 -3 -285 -7 -335 -10 -49 -2 -205 -7 -345 -10 -140 -3
-311 -7 -380 -10 -69 -2 -228 -7 -355 -10 -126 -3 -291 -7 -365 -10 -74 -3
-229 -7 -345 -10 -115 -3 -286 -7 -380 -10 -393 -11 -570 -16 -935 -25 -212
-5 -455 -12 -540 -15 -85 -3 -247 -7 -360 -10 -316 -8 -897 -24 -1075 -30 -88
-2 -250 -7 -360 -10 -110 -3 -272 -7 -360 -10 -88 -3 -257 -7 -375 -10 -382
-10 -2729 -74 -2930 -80 -107 -3 -591 -17 -1075 -31 -484 -13 -1350 -37 -1925
-54 -575 -16 -1319 -36 -1655 -45 -424 -11 -633 -20 -684 -30 -197 -38 -379
-180 -481 -376 -68 -131 -72 -156 -66 -474 3 -154 8 -453 11 -665 3 -212 7
-511 10 -665 8 -463 15 -851 20 -1215 3 -190 8 -424 10 -520 2 -96 7 -425 11
-730 4 -305 8 -573 9 -595 2 -22 4 -173 5 -335 3 -353 8 -424 30 -410 49 31
142 -9 154 -68 4 -15 71 -448 151 -962 80 -514 161 -1034 180 -1155 106 -675
117 -750 110 -803 -19 -151 -108 -288 -227 -352 l-45 -23 -52 -209 c-51 -207
-134 -478 -194 -633 l-31 -80 23 -1485 c12 -817 26 -1515 31 -1552 22 -173
150 -313 317 -348 32 -7 738 -10 2143 -8 l2095 3 210 68 c558 180 1043 287
1252 274 82 -5 107 -12 98 -27 -3 -4 -97 -74 -211 -155 -113 -81 -203 -150
-200 -152 6 -6 15107 14 16126 22 614 4 658 6 711 24 70 24 124 58 170 107 89
96 106 158 113 419 6 220 8 288 36 1605 11 498 24 1101 30 1340 5 239 14 653
20 920 5 267 12 577 15 690 7 280 14 611 25 1155 5 253 12 559 15 680 3 121
19 839 35 1595 17 756 43 1987 60 2735 46 2120 45 2026 26 2128 -91 479 -492
822 -980 840 -53 2 -97 3 -98 2z m-19020 -1047 c18 -18 14 -46 -7 -58 -13 -7
-337 -10 -981 -10 -1075 0 -1047 2 -1195 -70 -143 -69 -253 -180 -325 -325
-82 -167 -75 69 -75 -2379 0 -2064 -1 -2179 -17 -2190 -13 -8 -23 -8 -35 0
-17 11 -18 127 -23 2145 -3 1174 -1 2165 3 2203 19 167 98 327 227 457 127
129 271 203 440 227 103 15 1973 15 1988 0z m15305 -170 c19 -16 36 -57 62
-142 l37 -119 256 7 c142 4 313 9 382 11 69 3 217 7 330 10 113 3 275 7 360
10 283 9 483 15 700 21 118 3 323 9 455 13 132 5 296 8 363 7 124 -1 124 -1
149 -30 19 -23 24 -37 21 -65 -5 -38 -334 -1133 -350 -1164 -24 -46 -13 -45
-1163 -53 -600 -3 -1092 -8 -1094 -10 -3 -2 31 -116 75 -254 l79 -249 1013 -3
1014 -3 24 -28 c31 -36 30 -71 -2 -104 l-26 -26 -1057 6 c-1008 6 -1057 8
-1081 25 -21 16 -71 163 -345 1013 l-320 994 -187 -4 -187 -3 -25 25 c-32 32
-33 58 -2 94 23 27 29 28 138 33 62 3 168 6 234 8 115 3 123 2 147 -20z
m-1440 -2155 c2 -5 -146 -393 -330 -863 l-333 -855 6 -581 5 -581 -107 -6
c-59 -4 -180 -7 -269 -7 l-162 0 -6 137 c-4 75 -7 330 -7 567 l-1 431 -348
870 -347 870 80 7 c45 3 174 6 287 7 l207 1 11 -27 c6 -16 92 -264 191 -552
99 -289 182 -526 184 -528 3 -3 213 628 338 1014 l30 92 41 4 c81 7 526 7 530
0z m-1940 -60 c3 -27 4 -133 4 -238 l-2 -190 -273 -5 -273 -5 1 -620 c1 -341
3 -636 4 -655 2 -19 5 -280 6 -580 l3 -545 -270 -3 -270 -2 -6 262 c-4 145 -7
421 -7 614 0 193 -3 615 -7 937 l-6 587 -274 0 -273 0 0 133 c0 74 -3 182 -7
240 l-6 107 289 3 c159 1 530 3 825 5 l536 2 6 -47z m-8304 3 c264 -66 460
-226 594 -485 87 -166 135 -329 179 -606 17 -112 17 -651 0 -770 -71 -472
-234 -780 -503 -948 -225 -140 -565 -177 -834 -90 -313 101 -538 373 -645 781
-61 230 -89 579 -71 864 21 325 71 541 171 743 147 298 358 461 674 521 93 18
347 11 435 -10z m4299 -53 c12 -43 50 -193 86 -333 36 -140 115 -451 176 -690
61 -239 141 -550 176 -690 36 -140 112 -438 170 -662 57 -224 104 -414 104
-422 0 -14 -32 -16 -272 -16 l-273 0 -84 360 -85 360 -350 0 c-193 0 -361 -3
-372 -6 -15 -4 -24 -16 -28 -37 -3 -18 -38 -179 -77 -358 l-71 -326 -265 -8
c-146 -4 -269 -3 -273 1 -5 5 25 151 66 324 41 173 194 815 340 1425 145 611
266 1120 269 1133 l5 22 369 0 369 0 20 -77z m1485 -135 c4 -116 7 -367 7
-558 0 -191 3 -637 7 -991 l6 -644 368 3 367 4 7 -154 c3 -84 5 -191 3 -238
l-3 -85 -639 -7 c-352 -4 -642 -5 -644 -3 -6 6 -28 2875 -23 2881 2 2 124 4
271 4 l267 0 6 -212z m-2943 189 c0 -2 -11 -32 -25 -68 -14 -35 -87 -221 -161
-414 -276 -711 -378 -973 -431 -1110 l-55 -140 5 -576 6 -576 -260 -7 c-143
-3 -264 -4 -268 -2 -5 3 -11 261 -16 573 l-7 568 -340 850 c-188 467 -343 860
-345 872 l-5 22 287 -2 288 -2 39 -115 c284 -826 339 -984 343 -988 2 -2 86
245 186 549 100 305 187 557 193 561 10 7 566 12 566 5z m-5127 -144 c4 -58 7
-262 7 -453 0 -191 3 -686 7 -1100 l6 -753 368 6 c319 4 368 3 373 -10 3 -8 6
-115 6 -237 l0 -223 -332 -6 c-182 -4 -472 -7 -645 -7 l-313 0 0 398 c0 218
-2 575 -5 792 -12 1031 -15 1686 -9 1693 4 4 125 7 269 7 l262 0 6 -107z
m15003 53 c138 -63 211 -217 170 -359 -21 -73 -95 -156 -168 -187 -114 -49
-248 -25 -342 61 -71 65 -100 130 -99 224 1 84 19 130 75 192 94 101 235 128
364 69z m1305 10 c124 -29 212 -112 244 -229 29 -108 -2 -217 -85 -291 -69
-62 -121 -81 -225 -81 -108 0 -159 20 -234 90 -148 139 -125 368 49 472 84 51
155 62 251 39z m333 -1176 c108 -27 190 -73 267 -150 106 -104 169 -257 169
-405 -1 -242 -147 -452 -377 -542 l-68 -27 -420 -7 c-730 -12 -1684 -12 -1740
1 -148 33 -301 153 -370 289 -173 344 10 744 383 832 31 8 303 14 812 18 1358
13 1257 13 1344 -9z m1509 -1364 c21 -22 33 -7268 12 -7371 -51 -242 -255
-443 -490 -484 -39 -6 -495 -11 -1274 -13 -1173 -2 -1213 -2 -1227 16 -9 13
-10 24 -3 37 9 18 48 19 1127 20 1210 0 1366 4 1450 38 154 61 266 183 324
351 l23 65 -2 1425 c-5 4635 -3 5903 8 5916 15 18 34 18 52 0z m-4282 -2148
c1 -2 7 -649 14 -1438 9 -1041 9 -1437 1 -1442 -6 -5 -123 -7 -261 -5 l-250 2
-9 1045 c-5 697 -5 1098 2 1205 6 88 9 161 8 163 -2 1 -14 -53 -28 -120 -14
-68 -130 -612 -258 -1210 l-234 -1086 -170 -7 c-94 -3 -229 -5 -301 -3 l-130
3 -21 95 c-12 52 -67 293 -123 535 -56 242 -168 721 -247 1065 -196 845 -187
811 -159 570 11 -95 17 -383 25 -1194 6 -587 10 -1069 8 -1071 -2 -1 -115 -4
-253 -6 l-250 -4 -6 320 c-4 176 -10 824 -14 1441 l-7 1121 412 7 c227 4 416
3 420 -1 4 -4 19 -62 33 -128 15 -66 91 -408 171 -760 80 -352 181 -802 226
-1000 45 -198 82 -361 83 -362 2 -1 19 78 39 175 220 1064 430 2069 433 2080
3 9 97 12 425 12 231 0 421 -1 421 -2z m-3619 -29 c4 -8 69 -255 144 -549 74
-294 169 -665 210 -825 41 -159 97 -378 124 -485 27 -107 97 -377 154 -600 57
-223 101 -408 97 -413 -4 -4 -128 -6 -276 -5 l-268 3 -47 200 c-26 110 -64
271 -85 358 l-37 157 -369 0 -369 0 -5 -22 c-3 -13 -39 -175 -80 -362 -40
-186 -75 -339 -77 -341 -2 -2 -255 -6 -564 -11 l-560 -7 -178 429 c-98 236
-203 489 -234 562 l-55 132 -76 0 c-42 0 -82 -4 -90 -9 -12 -8 -13 -95 -10
-563 l4 -553 -271 -3 -271 -2 -7 587 c-3 324 -9 974 -12 1446 l-7 857 429 0
c335 0 449 -3 522 -15 400 -65 599 -296 632 -731 17 -223 -15 -427 -90 -580
-55 -111 -109 -172 -239 -272 l-25 -19 26 -59 c142 -321 521 -1161 527 -1167
4 -4 44 147 89 335 45 189 198 835 342 1436 143 601 260 1095 260 1097 0 4
681 12 724 9 5 0 13 -7 18 -15z m-4112 -4 c129 -19 256 -57 372 -112 l97 -45
-23 -62 c-101 -273 -143 -376 -152 -376 -6 0 -49 18 -95 39 -489 229 -863 12
-981 -571 -21 -101 -23 -140 -22 -363 0 -207 4 -271 22 -375 41 -239 112 -404
219 -507 77 -75 140 -97 273 -97 58 0 135 5 173 13 l67 13 0 330 0 331 -177
-4 -178 -4 0 240 0 240 441 3 441 2 6 -367 c4 -203 7 -536 7 -741 l0 -373 -45
-19 c-244 -105 -636 -168 -874 -142 -251 28 -429 114 -586 284 -179 193 -287
469 -336 863 -19 149 -16 564 4 699 57 370 181 634 392 835 116 110 242 183
400 230 161 49 381 63 555 36z m-2503 -24 c389 -81 653 -390 757 -888 44 -211
51 -293 51 -593 0 -296 -9 -392 -55 -601 -95 -429 -338 -726 -672 -823 -285
-82 -614 -41 -831 104 -275 184 -442 523 -499 1015 -19 162 -15 581 6 730 90
642 368 989 856 1068 77 13 301 6 387 -12z m-2292 -51 c120 -18 197 -40 294
-87 225 -108 342 -309 373 -641 26 -279 -30 -528 -156 -700 -40 -54 -138 -145
-182 -170 -14 -8 20 -90 261 -628 153 -340 280 -625 282 -631 4 -10 -57 -13
-286 -13 l-291 0 -23 53 c-13 28 -117 278 -232 555 l-208 502 -95 0 -94 0 4
-557 3 -558 -267 -3 c-148 -1 -268 -1 -269 0 0 2 -6 649 -13 1438 -8 1000 -9
1437 -1 1442 15 12 820 9 900 -2z m-1885 -20 c307 -52 510 -238 586 -539 74
-291 45 -646 -72 -873 -64 -125 -182 -245 -299 -305 -91 -47 -224 -89 -312
-98 -32 -3 -74 -8 -93 -10 -19 -2 -75 -4 -124 -4 l-89 -1 8 -520 7 -520 -163
-2 c-90 0 -211 -2 -269 -2 l-105 -1 -6 70 c-4 39 -9 592 -13 1230 -3 638 -9
1256 -12 1372 l-7 213 279 3 c365 5 603 0 684 -13z"/>
<path d="M19417 36200 c-268 -68 -401 -434 -384 -1059 10 -372 59 -586 173
-761 79 -121 174 -173 314 -173 131 1 210 39 293 144 114 144 166 369 174 752
16 723 -136 1091 -455 1103 -42 2 -94 -1 -115 -6z"/>
<path d="M23671 36234 c-4 -73 -215 -1110 -247 -1216 -5 -17 12 -18 261 -18
249 0 266 1 261 18 -24 84 -178 753 -221 962 -29 146 -54 260 -54 254z"/>
<path d="M32273 36421 c-75 -47 -84 -149 -19 -208 60 -55 131 -56 185 -2 54
54 53 125 -2 186 -28 30 -42 36 -83 40 -37 3 -57 -1 -81 -16z"/>
<path d="M33645 36411 c-125 -57 -89 -243 50 -259 89 -10 162 58 152 144 -6
58 -30 92 -80 115 -52 23 -72 23 -122 0z"/>
<path d="M27336 31320 c-20 -125 -119 -616 -189 -934 l-44 -198 258 3 c141 2
260 6 262 9 3 3 -32 163 -78 357 -46 193 -107 465 -135 605 -28 139 -52 257
-54 263 -1 5 -11 -42 -20 -105z"/>
<path d="M25060 31018 c0 -201 3 -386 6 -412 l7 -48 122 4 c112 3 126 5 181
33 68 35 114 94 141 184 25 80 25 313 0 393 -24 80 -71 137 -141 173 -54 27
-68 30 -187 33 l-129 4 0 -364z"/>
<path d="M20763 31366 c-142 -46 -251 -195 -308 -421 -66 -257 -74 -697 -19
-1010 50 -281 166 -477 319 -534 86 -33 217 -27 298 12 192 95 292 374 304
852 15 606 -92 973 -315 1082 -46 23 -71 28 -146 30 -57 2 -107 -2 -133 -11z"/>
<path d="M18450 31127 c0 -112 3 -300 7 -417 l6 -213 111 6 c206 10 295 70
342 232 28 94 25 289 -4 383 -49 155 -148 212 -367 212 l-95 0 0 -203z"/>
<path d="M16522 31301 c-6 -16 4 -871 11 -877 2 -3 44 -5 93 -5 198 0 314 82
359 252 35 130 27 330 -17 448 -30 78 -107 154 -180 175 -72 22 -259 26 -266
7z"/>
<path d="M7240 33605 c-148 -30 -303 -108 -396 -201 -68 -68 -101 -120 -132
-209 -22 -62 -25 -88 -27 -220 -1 -160 -7 -186 -57 -232 -31 -29 -89 -53 -129
-53 -43 0 -97 -28 -116 -59 -47 -76 -67 -100 -104 -120 -44 -25 -84 -25 -239
-1 -165 27 -351 -6 -480 -85 -67 -41 -174 -150 -222 -225 -75 -120 -101 -199
-100 -315 1 -143 68 -270 203 -382 139 -116 153 -195 60 -328 -183 -263 -173
-476 34 -681 82 -81 150 -124 196 -124 18 0 30 10 44 36 24 45 98 112 156 141
116 58 262 70 345 28 106 -53 222 -210 312 -423 31 -72 80 -163 129 -237 144
-217 419 -657 627 -1003 107 -178 135 -188 424 -158 329 35 819 140 1172 252
102 32 151 76 169 151 11 46 9 62 -28 214 -70 288 -192 668 -320 994 -57 143
-87 184 -158 211 -54 21 -101 15 -184 -22 -121 -54 -293 -204 -475 -411 -192
-220 -232 -248 -359 -248 -67 0 -89 5 -135 27 -67 33 -159 105 -193 150 -14
18 -164 319 -333 668 -290 596 -309 638 -309 690 0 63 31 131 120 265 88 132
191 228 300 282 71 36 130 50 245 58 243 17 543 115 725 238 92 62 187 164
226 242 27 55 33 82 37 149 10 186 -101 449 -273 648 -206 239 -485 347 -755
293z"/>
<path d="M10322 28290 c-430 -218 -862 -358 -1342 -434 -249 -39 -369 -49
-775 -61 -222 -7 -493 -22 -496 -28 0 -1 -8 -67 -17 -147 l-17 -145 -70 -12
c-388 -64 -943 23 -1530 242 -172 64 -366 145 -442 183 -22 12 -69 26 -104 31
-82 13 -534 58 -659 66 -52 4 -101 8 -108 11 -36 11 -335 4 -416 -11 -422 -74
-785 -381 -930 -784 -15 -41 -60 -209 -102 -375 -363 -1450 -1284 -4929 -1620
-6121 -124 -439 -323 -1062 -569 -1785 -97 -285 -97 -285 -99 -390 l-2 -105
-68 -109 c-145 -231 -278 -520 -345 -744 -72 -242 -93 -445 -72 -707 24 -299
111 -1043 206 -1765 20 -146 38 -281 40 -300 250 -1899 991 -6912 1734 -11725
l117 -760 101 -3 101 -3 -35 -102 c-99 -291 -213 -874 -217 -1103 -1 -71 2
-85 26 -121 53 -81 -60 -71 1756 -159 409 -20 401 -21 436 50 l19 39 -32 110
c-98 337 -311 759 -530 1050 -97 129 -253 298 -355 386 -82 72 -85 75 -69 93
16 18 16 43 -6 436 -47 873 -71 1326 -100 1902 -17 327 -33 638 -36 690 -43
781 -149 3233 -190 4420 -42 1230 -71 2684 -61 3110 12 477 17 625 23 669 5
41 49 -85 513 -1470 720 -2146 1239 -3677 1583 -4669 102 -294 87 -249 192
-555 646 -1869 1212 -3416 1452 -3970 l39 -90 155 3 c366 6 683 59 831 139 38
21 47 30 43 47 -3 12 -34 208 -70 436 -152 963 -483 2971 -660 4005 -132 772
-164 957 -261 1505 -147 835 -142 805 -254 1420 -583 3206 -1069 5447 -1403
6473 l-55 168 27 13 c37 20 85 74 112 126 20 41 22 58 21 178 -2 146 8 234 38
329 15 47 275 627 458 1023 93 200 1581 3457 1910 4180 91 201 169 369 173
374 4 5 79 -52 166 -126 532 -452 1010 -776 1538 -1041 508 -255 991 -405
1515 -469 158 -19 622 -16 785 5 267 36 528 100 763 188 108 41 321 131 341
146 2 1 -24 64 -57 140 -225 511 -415 1077 -548 1631 l-49 202 -30 4 c-16 3
-77 10 -135 16 -428 46 -884 222 -1310 505 -397 263 -809 663 -1147 1113 -46
62 -83 115 -81 117 1 1 68 42 148 90 480 291 896 600 1283 952 75 69 137 126
137 128 0 2 -114 117 -253 257 -328 327 -524 565 -766 926 -56 84 -105 151
-109 151 -4 -1 -85 -41 -180 -89z m-6627 -25866 c-13 -87 -57 -160 -122 -203
-56 -38 -180 -67 -342 -82 -131 -12 -185 -8 -232 17 -34 17 -74 76 -84 120
l-6 32 83 6 c245 20 478 66 628 125 41 17 77 30 79 30 2 1 0 -20 -4 -45z"/>
<path d="M31200 15620 c-63 -5 -227 -16 -365 -25 -137 -8 -279 -22 -314 -30
-200 -47 -382 -169 -490 -329 -15 -22 -72 -122 -126 -221 -290 -529 -1546
-2818 -1577 -2872 -16 -29 -33 -53 -38 -53 -9 0 -75 108 -345 565 -81 138
-167 282 -190 320 -40 65 -344 578 -718 1210 -88 148 -185 313 -217 365 -31
52 -119 201 -195 330 -75 129 -162 267 -192 307 -112 148 -269 249 -459 294
-69 16 -154 22 -518 34 -475 15 -560 12 -720 -30 -252 -65 -492 -219 -650
-417 -120 -149 -134 -177 -369 -748 -113 -275 -127 -323 -127 -433 1 -200 105
-396 273 -510 28 -20 194 -100 367 -177 294 -132 475 -214 975 -439 110 -50
196 -91 190 -91 -10 0 -317 58 -1285 244 -327 63 -597 113 -599 111 -2 -2 30
-46 71 -97 145 -181 408 -518 408 -522 0 -3 -132 -119 -294 -259 l-293 -254
-309 -8 c-233 -5 -318 -11 -344 -22 -48 -19 -97 -69 -111 -112 -14 -41 -4
-1030 11 -1094 11 -52 51 -101 103 -126 40 -19 60 -21 269 -21 l226 0 6 -67
c3 -38 63 -948 132 -2023 128 -2002 366 -5648 409 -6275 13 -192 29 -377 35
-410 18 -92 56 -163 126 -233 99 -99 196 -134 354 -126 41 1 273 5 515 9 242
3 557 8 700 10 348 7 1335 23 1830 30 405 6 886 14 3775 64 1556 27 1607 29
1662 48 136 50 233 156 279 305 17 56 22 150 44 858 41 1318 193 6209 235
7610 6 195 13 361 15 368 3 9 53 12 202 12 114 0 215 5 238 11 51 14 119 82
133 131 10 38 -1 987 -13 1075 -8 54 -71 128 -123 143 -20 5 -120 10 -222 10
l-185 1 -303 245 c-211 171 -300 249 -294 257 51 64 453 620 450 622 -2 2
-170 -34 -373 -80 -204 -46 -709 -160 -1124 -254 -414 -94 -756 -171 -760
-171 -16 1 81 49 1291 644 l378 185 78 78 c85 85 140 176 167 279 21 78 22
232 1 310 -9 33 -92 228 -185 433 -186 409 -248 516 -374 644 -170 174 -391
297 -637 353 -80 18 -353 26 -510 14z m260 -861 c90 -14 175 -58 238 -121 95
-96 134 -190 135 -328 1 -160 -51 -296 -156 -403 -35 -37 -184 -151 -347 -269
-373 -268 -722 -520 -1281 -925 -250 -181 -466 -337 -480 -346 -19 -13 -667
-167 -701 -167 -5 0 4 19 20 43 16 23 173 269 349 547 678 1071 1006 1586
1033 1622 38 53 106 105 166 127 72 28 874 222 949 230 6 0 39 -4 75 -10z
m-5918 -179 c216 -44 422 -87 457 -95 133 -33 199 -82 297 -226 102 -149 601
-881 702 -1029 194 -284 254 -372 345 -505 341 -500 340 -498 316 -492 -13 3
-184 36 -379 73 l-355 68 -280 189 c-154 104 -383 259 -510 344 -126 85 -345
232 -485 326 -140 95 -367 248 -505 341 -271 182 -348 249 -402 352 -80 151
-89 339 -23 482 69 147 223 249 382 251 26 1 224 -35 440 -79z"/>
<path d="M7342 2398 c-176 -318 -285 -663 -328 -1033 -22 -191 -16 -304 20
-373 35 -69 90 -123 161 -157 54 -27 69 -29 239 -37 304 -14 2774 -98 2883
-98 100 0 103 1 137 30 63 56 71 139 20 200 -44 51 -650 490 -1004 727 -452
301 -802 509 -1148 682 -234 117 -218 114 -225 47 -15 -147 -130 -238 -356
-283 -118 -23 -201 -3 -262 64 -46 49 -60 89 -69 205 -5 61 -11 112 -13 114
-2 2 -27 -38 -55 -88z"/>
</g>
</svg>
